<?xml version="1.0" encoding="utf-8"?>
<svg xmlns="http://www.w3.org/2000/svg" width="100" height="100" style="width: 100px; height: 100px; shape-rendering: auto;"><path></path><g class="layer" transform="matrix(1 0 0 1 0 0) matrix(1 0 0 1 0 0)"><g class="ani" style="transform-origin: 34.3878px 33.9px; transform: rotate(-30deg); animation: 1.51515s linear -0.666667s infinite normal forwards running swing-ec517758-746d-462f-a9b6-25ec864449b0;"><g><g class="layer" transform="matrix(1 0 0 1 0 0) matrix(1 0 0 1 0 0)"><g class="ani"><path fill="#4B4B4B" d="M57.2,38l-2.1-0.9c-0.7-0.3-1.2-1-1.1-1.8c0.1-0.9,0.1-1.9,0-2.8c-0.1-0.8,0.4-1.5,1.1-1.8l2.1-0.9
								c0.9-0.4,1.4-1.5,1-2.4l-2.4-5.8c-0.4-0.9-1.5-1.4-2.4-1l-2.1,0.9c-0.7,0.3-1.6,0.1-2.1-0.5c-0.6-0.7-1.3-1.4-2-2
								c-0.6-0.5-0.8-1.4-0.5-2.1l0.9-2.1c0.4-0.9-0.1-2-1-2.4l-5.8-2.4c-0.9-0.4-2,0.1-2.4,1l-0.9,2.1c-0.3,0.7-1,1.2-1.8,1.1
								c-0.9-0.1-1.9-0.1-2.8,0c-0.8,0.1-1.5-0.4-1.8-1.1l-0.9-2.1c-0.4-0.9-1.5-1.4-2.4-1l-5.8,2.4c-0.9,0.4-1.4,1.5-1,2.4L22,17
								c0.3,0.7,0.1,1.6-0.5,2.1c-0.7,0.6-1.4,1.3-2,2c-0.5,0.6-1.4,0.8-2.1,0.5l-2.1-0.9c-0.9-0.4-2,0.1-2.4,1l-2.4,5.8
								c-0.4,0.9,0.1,2,1,2.4l2.1,0.9c0.7,0.3,1.2,1,1.1,1.8c-0.1,0.9-0.1,1.9,0,2.8c0.1,0.8-0.4,1.5-1.1,1.8L11.6,38
								c-0.9,0.4-1.4,1.5-1,2.4l2.4,5.8c0.4,0.9,1.5,1.4,2.4,1l2.1-0.9c0.7-0.3,1.6-0.1,2.1,0.5c0.6,0.7,1.3,1.4,2,2
								c0.6,0.5,0.8,1.4,0.5,2.1l-0.9,2.1c-0.4,0.9,0.1,2,1,2.4l5.8,2.4c0.9,0.4,2-0.1,2.4-1l0.9-2.1c0.3-0.7,1-1.2,1.8-1.1
								c0.9,0.1,1.9,0.1,2.8,0c0.8-0.1,1.5,0.4,1.8,1.1l0.9,2.1c0.4,0.9,1.5,1.4,2.4,1l5.8-2.4c0.9-0.4,1.4-1.5,1-2.4l-0.9-2.1
								c-0.3-0.7-0.1-1.6,0.5-2.1c0.7-0.6,1.4-1.3,2-2c0.5-0.6,1.4-0.8,2.1-0.5l2.1,0.9c0.9,0.4,2-0.1,2.4-1l2.4-5.8
								C58.5,39.4,58.1,38.3,57.2,38z M34.4,48.5c-8.1,0-14.6-6.5-14.6-14.6s6.5-14.6,14.6-14.6S49,25.8,49,33.9
								S42.4,48.5,34.4,48.5z" style="fill: white;"></path></g></g><g class="layer" transform="matrix(1 0 0 1 0 0) matrix(1 0 0 1 0 0)"><g class="ani"><path fill="#1db7ff" d="M34.4,19.3c-8.1,0-14.6,6.5-14.6,14.6s6.5,14.6,14.6,14.6S49,42,49,33.9S42.4,19.3,34.4,19.3z
								 M34.4,43c-5,0-9-4.1-9-9c0-5,4.1-9,9-9c5,0,9,4.1,9,9C43.4,38.9,39.4,43,34.4,43z"></path></g></g></g></g></g><g class="layer" transform="matrix(1 0 0 1 0 0) matrix(1 0 0 1 0 0)"><g class="ani" style="transform-origin: 60.9933px 71.1px; transform: rotate(-30deg); animation: 1.51515s linear -0.333333s infinite normal forwards running swing-ec517758-746d-462f-a9b6-25ec864449b0;"><g><g class="layer" transform="matrix(1 0 0 1 0 0) matrix(1 0 0 1 0 0)"><g class="ani"><path fill="#4B4B4B" d="M79,74.3l-1.6-0.7c-0.6-0.2-0.9-0.8-0.9-1.4c0.1-0.7,0.1-1.5,0-2.2c0-0.6,0.3-1.2,0.9-1.4l1.6-0.7
								c0.7-0.3,1.1-1.2,0.8-1.9L78,61.4c-0.3-0.7-1.2-1.1-1.9-0.8l-1.6,0.7c-0.6,0.2-1.2,0.1-1.6-0.4c-0.5-0.6-1-1.1-1.6-1.6
								c-0.5-0.4-0.6-1.1-0.4-1.6l0.7-1.6c0.3-0.7,0-1.6-0.8-1.9l-4.6-1.9c-0.7-0.3-1.6,0-1.9,0.8l-0.7,1.6
								c-0.2,0.6-0.8,0.9-1.4,0.9c-0.7-0.1-1.5,0-2.2,0c-0.6,0-1.2-0.3-1.4-0.9l-0.7-1.6c-0.3-0.7-1.2-1.1-1.9-0.8l-4.6,1.9
								c-0.7,0.3-1.1,1.2-0.8,1.9l0.7,1.6c0.2,0.6,0.1,1.2-0.4,1.6c-0.6,0.5-1.1,1-1.6,1.5c-0.4,0.5-1.1,0.6-1.6,0.4L46,60.6
								c-0.7-0.3-1.6,0-1.9,0.8L42.2,66c-0.3,0.7,0,1.6,0.8,1.9l1.6,0.7c0.6,0.2,0.9,0.8,0.9,1.4c-0.1,0.7,0,1.5,0,2.2
								c0,0.6-0.3,1.2-0.9,1.4L43,74.3c-0.7,0.3-1.1,1.2-0.8,1.9l1.9,4.6c0.3,0.7,1.2,1.1,1.9,0.8l1.6-0.7c0.6-0.2,1.2-0.1,1.6,0.4
								c0.5,0.6,1,1.1,1.5,1.6c0.5,0.4,0.6,1.1,0.4,1.6l-0.7,1.6c-0.3,0.7,0,1.6,0.8,1.9l4.6,1.9c0.7,0.3,1.6,0,1.9-0.8l0.7-1.6
								c0.2-0.6,0.8-0.9,1.4-0.9c0.7,0.1,1.5,0.1,2.2,0c0.6,0,1.2,0.3,1.4,0.9l0.7,1.6c0.3,0.7,1.2,1.1,1.9,0.8l4.6-1.9
								c0.7-0.3,1.1-1.2,0.8-1.9l-0.7-1.6c-0.2-0.6-0.1-1.2,0.4-1.6c0.6-0.5,1.1-1,1.6-1.6c0.4-0.5,1.1-0.6,1.6-0.4l1.6,0.7
								c0.7,0.3,1.6,0,1.9-0.8l1.9-4.6C80.1,75.5,79.8,74.6,79,74.3z M61,82.6c-6.4,0-11.5-5.2-11.5-11.5S54.7,59.6,61,59.6
								s11.5,5.2,11.5,11.5S67.4,82.6,61,82.6z" style="fill: white;"></path></g></g><g class="layer" transform="matrix(1 0 0 1 0 0) matrix(1 0 0 1 0 0)"><g class="ani"><path fill="#1db7ff" d="M61,59.6c-6.4,0-11.5,5.2-11.5,11.5S54.7,82.6,61,82.6s11.5-5.2,11.5-11.5S67.4,59.6,61,59.6z
								 M61,78.2c-4,0-7.2-3.2-7.2-7.2c0-4,3.2-7.2,7.2-7.2s7.2,3.2,7.2,7.2C68.2,75,65,78.2,61,78.2z"></path></g></g></g></g></g><g class="layer" transform="matrix(1 0 0 1 0 0) matrix(1 0 0 1 0 0)"><g class="ani" style="transform-origin: 75.6423px 36.05px; transform: rotate(-30deg); animation: 1.51515s linear 0s infinite normal forwards running swing-ec517758-746d-462f-a9b6-25ec864449b0;"><g><g class="layer" transform="matrix(1 0 0 1 0 0) matrix(1 0 0 1 0 0)"><g class="ani"><path fill="#4B4B4B" d="M88.6,35.3l-1.3-0.2c-0.4-0.1-0.8-0.4-0.9-0.8c-0.1-0.5-0.2-1-0.4-1.5c-0.1-0.4,0-0.9,0.4-1.1l1-0.8
								c0.5-0.3,0.6-1,0.2-1.5l-2.1-2.8c-0.3-0.5-1-0.6-1.5-0.2l-1,0.8c-0.4,0.3-0.8,0.3-1.2,0c-0.4-0.3-0.9-0.6-1.3-0.8
								c-0.4-0.2-0.6-0.6-0.5-1.1l0.2-1.3c0.1-0.6-0.3-1.1-0.9-1.2L76,22.2c-0.6-0.1-1.1,0.3-1.2,0.9l-0.2,1.3
								c-0.1,0.4-0.4,0.8-0.8,0.9c-0.5,0.1-1,0.2-1.5,0.4c-0.4,0.1-0.9,0-1.1-0.4l-0.8-1c-0.3-0.5-1-0.6-1.5-0.2L66,26
								c-0.5,0.3-0.6,1-0.2,1.5l0.8,1c0.3,0.4,0.3,0.8,0,1.2c-0.3,0.4-0.6,0.9-0.8,1.3c-0.2,0.4-0.6,0.6-1.1,0.5l-1.3-0.2
								c-0.6-0.1-1.1,0.3-1.2,0.9l-0.5,3.5c-0.1,0.6,0.3,1.1,0.9,1.2l1.3,0.2c0.4,0.1,0.8,0.4,0.9,0.8c0.1,0.5,0.2,1,0.4,1.5
								c0.1,0.4,0,0.9-0.4,1.1l-1,0.8c-0.5,0.3-0.6,1-0.2,1.5l2.1,2.8c0.3,0.5,1,0.6,1.5,0.2l1-0.8c0.4-0.3,0.8-0.3,1.2,0
								c0.4,0.3,0.9,0.6,1.3,0.8c0.4,0.2,0.6,0.6,0.5,1.1l-0.2,1.3c-0.1,0.6,0.3,1.1,0.9,1.2l3.5,0.5c0.6,0.1,1.1-0.3,1.2-0.9
								l0.2-1.3c0.1-0.4,0.4-0.8,0.8-0.9c0.5-0.1,1-0.2,1.5-0.4c0.4-0.1,0.9,0,1.1,0.4l0.8,1c0.3,0.5,1,0.6,1.5,0.2l2.8-2.1
								c0.5-0.3,0.6-1,0.2-1.5l-0.8-1c-0.3-0.4-0.3-0.8,0-1.2c0.3-0.4,0.6-0.9,0.8-1.3c0.2-0.4,0.6-0.6,1.1-0.5l1.3,0.2
								c0.6,0.1,1.1-0.3,1.2-0.9l0.5-3.5C89.6,35.9,89.2,35.4,88.6,35.3z M77.6,44.1c-4.4,1.1-8.9-1.6-9.9-6s1.6-8.9,6-9.9
								s8.9,1.6,9.9,6S82,43,77.6,44.1z" style="fill: white;"></path></g></g><g class="layer" transform="matrix(1 0 0 1 0 0) matrix(1 0 0 1 0 0)"><g class="ani"><path fill="#1db7ff" d="M73.7,28.1c-4.4,1.1-7.1,5.5-6,9.9s5.5,7.1,9.9,6s7.1-5.5,6-9.9S78.1,27,73.7,28.1z M76.8,41.1
								c-2.7,0.7-5.5-1-6.2-3.8c-0.7-2.7,1-5.5,3.8-6.2s5.5,1,6.2,3.8C81.2,37.6,79.6,40.4,76.8,41.1z"></path></g></g></g></g></g><style id="swing-2a5cb256-b085-4af7-8365-b5b2dad3544a" data-anikit="">@keyframes swing-2a5cb256-b085-4af7-8365-b5b2dad3544a
{
  0% {
    animation-timing-function: cubic-bezier(0.9647,0.2413,-0.0705,0.7911);
    transform: rotate(-30deg);
  }
  51% {
    animation-timing-function: cubic-bezier(0.9226,0.2631,-0.0308,0.7628);
    transform: rotate(29.97deg);
  }
  100% {
    transform: rotate(-30deg);
  }
}</style><style id="swing-ec517758-746d-462f-a9b6-25ec864449b0" data-anikit="">@keyframes swing-ec517758-746d-462f-a9b6-25ec864449b0
{
  0% {
    animation-timing-function: cubic-bezier(0.9647,0.2413,-0.0705,0.7911);
    transform: rotate(-30deg);
  }
  51% {
    animation-timing-function: cubic-bezier(0.9226,0.2631,-0.0308,0.7628);
    transform: rotate(29.97deg);
  }
  100% {
    transform: rotate(-30deg);
  }
}</style><style id="swing-ec517758-746d-462f-a9b6-25ec864449b0" data-anikit="">@keyframes swing-ec517758-746d-462f-a9b6-25ec864449b0
{
  0% {
    animation-timing-function: cubic-bezier(0.9647,0.2413,-0.0705,0.7911);
    transform: rotate(-30deg);
  }
  51% {
    animation-timing-function: cubic-bezier(0.9226,0.2631,-0.0308,0.7628);
    transform: rotate(29.97deg);
  }
  100% {
    transform: rotate(-30deg);
  }
}</style><style id="swing-ec517758-746d-462f-a9b6-25ec864449b0" data-anikit="">@keyframes swing-ec517758-746d-462f-a9b6-25ec864449b0
{
  0% {
    animation-timing-function: cubic-bezier(0.9647,0.2413,-0.0705,0.7911);
    transform: rotate(-30deg);
  }
  51% {
    animation-timing-function: cubic-bezier(0.9226,0.2631,-0.0308,0.7628);
    transform: rotate(29.97deg);
  }
  100% {
    transform: rotate(-30deg);
  }
}</style><style id="swing-2a5cb256-b085-4af7-8365-b5b2dad3544a" data-anikit="">@keyframes swing-2a5cb256-b085-4af7-8365-b5b2dad3544a
{
  0% {
    animation-timing-function: cubic-bezier(0.9647,0.2413,-0.0705,0.7911);
    transform: rotate(-30deg);
  }
  51% {
    animation-timing-function: cubic-bezier(0.9226,0.2631,-0.0308,0.7628);
    transform: rotate(29.97deg);
  }
  100% {
    transform: rotate(-30deg);
  }
}</style></svg>
